<svg width="119" height="32" viewBox="0 0 119 32" fill="none" xmlns="http://www.w3.org/2000/svg">
<path d="M110.714 28.3905H105.346V8.11811H97.9421V3.75391H118.117V8.11811H110.714V28.3905Z" fill="black"/>
<path d="M87.5497 28.8031C85.3653 28.8031 83.4745 28.4749 81.8773 27.8185C80.3036 27.1385 79.0823 26.1891 78.2132 24.9701C77.3677 23.7275 76.9448 22.2741 76.9448 20.6097H82.5115C82.5584 22.0397 82.9461 23.0711 83.6741 23.7041C84.4258 24.3137 85.6941 24.6185 87.4791 24.6185C89.1937 24.6185 90.4035 24.3957 91.108 23.9503C91.8126 23.5049 92.1651 22.7429 92.1651 21.6645C92.1651 20.7971 91.9302 20.1641 91.4603 19.7657C91.0141 19.3437 90.1804 19.0037 88.959 18.7459L84.414 17.7965C82.0886 17.3275 80.3154 16.5187 79.0941 15.3701C77.8961 14.2213 77.2971 12.7679 77.2971 11.0097C77.2971 9.50933 77.7082 8.17292 78.5303 7.00092C79.3524 5.80532 80.515 4.87933 82.0182 4.22293C83.5449 3.54293 85.3065 3.20312 87.303 3.20312C89.2995 3.20312 91.0611 3.53133 92.5877 4.18773C94.138 4.84412 95.336 5.78172 96.1815 7.00092C97.0506 8.19652 97.485 9.59133 97.485 11.1855H91.9184C91.8244 9.77893 91.4251 8.79433 90.7206 8.23153C90.0158 7.66893 88.8414 7.38773 87.1974 7.38773C85.6002 7.38773 84.4728 7.61033 83.815 8.05573C83.1574 8.50113 82.8168 9.26312 82.7934 10.3415C82.7934 11.1385 83.0165 11.7481 83.4627 12.1701C83.9326 12.5921 84.8017 12.9319 86.0698 13.1899L90.4035 14.0337C92.8932 14.5027 94.7722 15.3231 96.0405 16.4953C97.3089 17.6441 97.943 19.1093 97.943 20.8909C97.943 22.4147 97.5202 23.7745 96.6747 24.9701C95.8526 26.1657 94.6548 27.1033 93.081 27.7833C91.5309 28.4631 89.6869 28.8031 87.5497 28.8031Z" fill="black"/>
<path d="M69.4343 28.3905V12.6583H63.6091V8.71631L65.9745 8.54031C67.2455 8.44651 68.1751 8.14151 68.7635 7.62531C69.3755 7.08571 69.7402 6.28791 69.8579 5.23211L70.0345 3.75391H74.5887V28.3905H69.4343Z" fill="black"/>
<path d="M43.9868 28.3901V23.5573L54.0095 15.7261C54.8094 15.0911 55.3976 14.5383 55.7741 14.0681C56.1505 13.5741 56.3974 13.0803 56.5152 12.5865C56.6328 12.0691 56.6915 11.4105 56.6915 10.6109C56.6915 9.36452 56.4328 8.50612 55.9152 8.03592C55.3976 7.56552 54.4447 7.33033 53.0566 7.33033C51.9978 7.35393 51.1979 7.50672 50.6569 7.78892C50.1393 8.04772 49.7864 8.49452 49.598 9.12952C49.4099 9.74092 49.3275 10.6227 49.3511 11.7751H44.0928C43.9514 8.97652 44.7162 6.84832 46.3866 5.39012C48.057 3.93213 50.3628 3.20312 53.3037 3.20312C56.0328 3.20312 58.1974 3.82633 59.7973 5.07272C61.3971 6.29552 62.197 8.11812 62.197 10.5405C62.197 12.2807 61.7382 13.7975 60.8207 15.0911C59.903 16.3609 58.3502 17.8191 56.1621 19.4653L51.7861 22.8165V24.2275H62.5145V28.3901H43.9868Z" fill="black"/>
<path fill-rule="evenodd" clip-rule="evenodd" d="M28.6565 0C30.4969 0 31.9888 1.4924 31.9888 3.3334V23.6666C31.9888 23.8508 31.8396 24 31.6555 24H21.659C21.475 24 21.3259 24.1492 21.3259 24.3334V31.6666C21.3259 31.8508 21.1766 32 20.9926 32H3.33223C1.49188 32 0 30.5076 0 28.6666V24.3776C0 24.1434 0.123356 23.9264 0.324086 23.806L12.2965 16.6198C12.5684 16.4566 12.4772 16.0544 12.1859 16.0052L12.1259 16H0.333284C0.149148 16 0 15.8508 0 15.6666V8.3334C0 8.1492 0.149148 8 0.333284 8H12.9954C13.1794 8 13.3287 7.8508 13.3287 7.6666V0.333401C13.3287 0.149201 13.4779 0 13.6618 0H28.6565ZM13.6618 8C13.4779 8 13.3287 8.1492 13.3287 8.3334V23.6666C13.3287 23.8508 13.4779 24 13.6618 24H20.9926C21.1766 24 21.3259 23.8508 21.3259 23.6666V8.3334C21.3259 8.1492 21.1766 8 20.9926 8H13.6618Z" fill="black"/>
</svg>
